<?xml version="1.0" standalone="no"?>
<!DOCTYPE svg PUBLIC "-//W3C//DTD SVG 20010904//EN"
 "http://www.w3.org/TR/2001/REC-SVG-20010904/DTD/svg10.dtd">
<svg version="1.0" xmlns="http://www.w3.org/2000/svg"
 width="256.000000pt" height="256.000000pt" viewBox="0 0 256.000000 256.000000"
 preserveAspectRatio="xMidYMid meet">

<g transform="translate(0.000000,256.000000) scale(0.100000,-0.100000)"
fill="#000000" stroke="none">
<path d="M1215 2341 c-51 -23 -92 -71 -101 -116 -5 -26 -11 -35 -26 -35 -40 0
-210 -64 -285 -107 -75 -42 -79 -43 -108 -30 -50 24 -91 29 -136 17 -106 -29
-158 -155 -102 -251 14 -24 13 -30 -35 -113 -67 -117 -107 -231 -129 -365
l-17 -109 -39 44 c-43 49 -79 57 -85 18 -3 -22 139 -194 161 -194 6 0 47 36
90 81 57 58 77 86 75 102 -5 38 -37 32 -85 -15 l-45 -43 7 70 c13 130 69 289
138 398 36 55 36 55 73 47 124 -28 238 86 206 204 l-10 36 59 35 c60 37 187
88 259 104 34 7 40 6 45 -10 10 -29 71 -77 115 -89 29 -8 51 -8 80 0 44 12
105 60 115 89 5 16 11 17 45 10 71 -16 199 -67 259 -103 l59 -36 -10 -38 c-29
-115 91 -234 203 -202 31 9 36 8 57 -17 65 -81 143 -293 157 -428 l7 -70 -45
43 c-48 47 -80 53 -85 15 -2 -16 18 -44 75 -102 43 -45 84 -81 90 -81 22 0
164 172 161 194 -6 39 -42 31 -86 -19 l-40 -46 -7 63 c-17 150 -72 309 -151
440 -35 57 -36 62 -22 87 57 96 6 222 -101 251 -45 12 -86 7 -136 -17 -29 -13
-33 -12 -108 30 -75 43 -245 107 -285 107 -15 0 -21 9 -26 35 -9 45 -50 93
-101 116 -50 23 -80 23 -130 0z m108 -62 c61 -31 76 -105 32 -157 -33 -39 -74
-48 -118 -27 -38 18 -57 50 -57 98 1 69 81 118 143 86z m-647 -300 c50 -47 36
-132 -26 -164 -37 -19 -53 -19 -90 0 -79 41 -72 156 10 188 27 11 82 -2 106
-24z m1350 0 c50 -47 36 -132 -26 -164 -37 -19 -53 -19 -90 0 -79 41 -72 156
10 188 27 11 82 -2 106 -24z"/>
<path d="M1168 1900 c-237 -43 -434 -204 -520 -426 -28 -73 -29 -98 -2 -108
17 -7 54 27 54 50 0 9 19 53 42 97 57 110 146 198 253 253 110 56 162 69 285
69 123 0 175 -13 285 -69 135 -69 248 -202 295 -349 15 -46 42 -64 65 -41 10
10 13 24 9 38 -69 225 -240 399 -459 466 -79 24 -233 34 -307 20z"/>
<path d="M1178 1714 c-32 -17 -58 -62 -58 -100 0 -23 -3 -26 -26 -21 -41 8
-90 -11 -118 -44 l-26 -31 0 -214 0 -214 -32 20 c-40 24 -116 26 -158 5 -64
-33 -99 -115 -80 -185 16 -58 251 -328 309 -354 36 -17 41 -23 41 -53 0 -25
-4 -33 -18 -33 -41 0 -52 -30 -52 -143 0 -155 -18 -147 327 -147 l274 0 24 25
c23 22 25 31 25 122 0 107 -12 139 -53 145 -19 3 -22 10 -25 52 -3 48 -2 50
47 93 33 29 61 67 83 111 l33 67 3 291 3 291 -26 31 c-28 33 -77 52 -116 46
-20 -4 -27 2 -42 35 -22 48 -73 76 -123 68 -33 -6 -34 -5 -34 29 0 96 -98 154
-182 108z m100 -66 c9 -9 12 -86 12 -284 0 -236 2 -273 16 -285 11 -9 20 -10
32 -2 15 9 17 36 20 205 2 181 4 197 23 213 15 15 25 17 47 9 l27 -9 5 -202
c5 -208 9 -228 46 -221 17 3 19 17 24 156 4 137 7 155 24 168 25 18 37 18 62
0 18 -14 19 -29 19 -283 l0 -268 -28 -56 c-16 -34 -50 -78 -87 -112 l-60 -55
0 -66 0 -66 -177 2 -178 3 -3 53 -3 53 -53 23 c-45 20 -73 46 -175 162 -133
153 -149 185 -114 232 48 65 116 62 172 -8 34 -42 74 -53 85 -24 3 9 6 127 6
263 0 238 1 249 21 267 19 17 23 17 47 3 l27 -15 5 -208 c4 -181 7 -210 22
-219 12 -8 21 -7 32 2 14 12 16 49 16 285 0 291 1 296 50 296 14 0 31 -5 38
-12z m262 -1298 l0 -80 -255 0 -255 0 0 80 0 80 255 0 255 0 0 -80z"/>
<path d="M312 577 c-29 -29 -52 -60 -52 -69 0 -15 113 -118 130 -118 4 0 14 7
21 16 11 14 11 21 -3 45 l-17 29 167 0 c117 0 172 4 180 12 16 16 15 23 -4 42
-13 13 -44 16 -181 16 -163 0 -166 0 -149 19 23 26 13 61 -18 61 -13 0 -42
-21 -74 -53z"/>
<path d="M2145 609 c-4 -13 0 -27 11 -40 17 -19 14 -19 -149 -19 -137 0 -168
-3 -181 -16 -19 -19 -20 -26 -4 -42 8 -8 63 -12 180 -12 l167 0 -17 -29 c-14
-24 -14 -31 -3 -45 7 -9 17 -16 21 -16 18 0 130 103 130 119 0 24 -101 121
-127 121 -13 0 -24 -8 -28 -21z"/>
</g>
</svg>
